<svg width="24" height="24" viewBox="0 0 24 24" fill="none" xmlns="http://www.w3.org/2000/svg">
<path d="M6 16L6 8" stroke="#13241C" stroke-width="1.5" stroke-linecap="round" stroke-linejoin="round"/>
<path d="M10 16L10 8" stroke="#13241C" stroke-width="1.5" stroke-linecap="round" stroke-linejoin="round"/>
<path d="M14 16L14 8" stroke="#13241C" stroke-width="1.5" stroke-linecap="round" stroke-linejoin="round"/>
<path d="M18 16L18 8" stroke="#13241C" stroke-width="1.5" stroke-linecap="round" stroke-linejoin="round"/>
<path d="M23 21H1V19.9516C1 19.3605 1.25751 18.7918 1.72348 18.3679C2.18944 17.9441 2.44695 17.3754 2.44695 16.7843V7.21574C2.44695 6.62465 2.18944 6.04471 1.72348 5.63205C1.25751 5.20825 1 4.63946 1 4.04836V3H23V4.03721C23 4.6283 22.7425 5.19709 22.2765 5.6209C21.8106 6.04471 21.553 6.6135 21.553 7.20459V16.7843C21.553 17.3754 21.8106 17.9441 22.2765 18.3679C22.7425 18.7918 23 19.3605 23 19.9516V21Z" stroke="#13241C" stroke-width="1.5" stroke-linecap="round" stroke-linejoin="round"/>
</svg>
