<svg width="1002" height="1002" viewBox="0 0 1002 1002" fill="none" xmlns="http://www.w3.org/2000/svg">
<path d="M501 1001C777.142 1001 1001 777.142 1001 501C1001 224.858 777.142 1 501 1C224.858 1 1 224.858 1 501C1 777.142 224.858 1001 501 1001Z" stroke="url(#paint0_linear_853_1905)" stroke-miterlimit="10"/>
<path d="M501 974.86C762.706 974.86 974.86 762.706 974.86 501C974.86 239.294 762.706 27.14 501 27.14C239.294 27.14 27.1399 239.294 27.1399 501C27.1399 762.706 239.294 974.86 501 974.86Z" stroke="url(#paint1_linear_853_1905)" stroke-miterlimit="10"/>
<path d="M501 948.71C748.263 948.71 948.71 748.263 948.71 501C948.71 253.737 748.263 53.29 501 53.29C253.737 53.29 53.29 253.737 53.29 501C53.29 748.263 253.737 948.71 501 948.71Z" stroke="url(#paint2_linear_853_1905)" stroke-miterlimit="10"/>
<path d="M501 922.57C733.827 922.57 922.57 733.827 922.57 501C922.57 268.173 733.827 79.43 501 79.43C268.173 79.43 79.4299 268.173 79.4299 501C79.4299 733.827 268.173 922.57 501 922.57Z" stroke="url(#paint3_linear_853_1905)" stroke-miterlimit="10"/>
<path d="M501 896.42C719.385 896.42 896.42 719.384 896.42 501C896.42 282.616 719.385 105.58 501 105.58C282.616 105.58 105.58 282.616 105.58 501C105.58 719.384 282.616 896.42 501 896.42Z" stroke="url(#paint4_linear_853_1905)" stroke-miterlimit="10"/>
<path d="M501 870.28C704.948 870.28 870.28 704.948 870.28 501C870.28 297.052 704.948 131.72 501 131.72C297.052 131.72 131.72 297.052 131.72 501C131.72 704.948 297.052 870.28 501 870.28Z" stroke="url(#paint5_linear_853_1905)" stroke-miterlimit="10"/>
<path d="M501 844.14C690.511 844.14 844.14 690.511 844.14 501C844.14 311.489 690.511 157.86 501 157.86C311.489 157.86 157.86 311.489 157.86 501C157.86 690.511 311.489 844.14 501 844.14Z" stroke="url(#paint6_linear_853_1905)" stroke-miterlimit="10"/>
<path d="M501 817.99C676.069 817.99 817.99 676.069 817.99 501C817.99 325.931 676.069 184.01 501 184.01C325.931 184.01 184.01 325.931 184.01 501C184.01 676.069 325.931 817.99 501 817.99Z" stroke="url(#paint7_linear_853_1905)" stroke-miterlimit="10"/>
<path d="M501 791.85C661.632 791.85 791.85 661.632 791.85 501C791.85 340.368 661.632 210.15 501 210.15C340.368 210.15 210.15 340.368 210.15 501C210.15 661.632 340.368 791.85 501 791.85Z" stroke="url(#paint8_linear_853_1905)" stroke-miterlimit="10"/>
<path d="M501 765.71C647.195 765.71 765.71 647.195 765.71 501C765.71 354.805 647.195 236.29 501 236.29C354.805 236.29 236.29 354.805 236.29 501C236.29 647.195 354.805 765.71 501 765.71Z" stroke="url(#paint9_linear_853_1905)" stroke-miterlimit="10"/>
<path d="M501 739.56C632.753 739.56 739.56 632.753 739.56 501C739.56 369.247 632.753 262.44 501 262.44C369.247 262.44 262.44 369.247 262.44 501C262.44 632.753 369.247 739.56 501 739.56Z" stroke="url(#paint10_linear_853_1905)" stroke-miterlimit="10"/>
<path d="M501 713.42C618.316 713.42 713.42 618.316 713.42 501C713.42 383.684 618.316 288.58 501 288.58C383.684 288.58 288.58 383.684 288.58 501C288.58 618.316 383.684 713.42 501 713.42Z" stroke="url(#paint11_linear_853_1905)" stroke-miterlimit="10"/>
<path d="M501 687.27C603.874 687.27 687.27 603.874 687.27 501C687.27 398.126 603.874 314.73 501 314.73C398.126 314.73 314.73 398.126 314.73 501C314.73 603.874 398.126 687.27 501 687.27Z" stroke="url(#paint12_linear_853_1905)" stroke-miterlimit="10"/>
<path d="M501 661.13C589.437 661.13 661.13 589.437 661.13 501C661.13 412.563 589.437 340.87 501 340.87C412.563 340.87 340.87 412.563 340.87 501C340.87 589.437 412.563 661.13 501 661.13Z" stroke="url(#paint13_linear_853_1905)" stroke-miterlimit="10"/>
<path d="M501 634.99C575.001 634.99 634.99 575.001 634.99 501C634.99 426.999 575.001 367.01 501 367.01C426.999 367.01 367.01 426.999 367.01 501C367.01 575.001 426.999 634.99 501 634.99Z" stroke="url(#paint14_linear_853_1905)" stroke-miterlimit="10"/>
<path d="M501 608.84C560.558 608.84 608.84 560.558 608.84 501C608.84 441.442 560.558 393.16 501 393.16C441.442 393.16 393.16 441.442 393.16 501C393.16 560.558 441.442 608.84 501 608.84Z" stroke="url(#paint15_linear_853_1905)" stroke-miterlimit="10"/>
<path d="M501 582.7C546.122 582.7 582.7 546.122 582.7 501C582.7 455.878 546.122 419.3 501 419.3C455.878 419.3 419.3 455.878 419.3 501C419.3 546.122 455.878 582.7 501 582.7Z" stroke="url(#paint16_linear_853_1905)" stroke-miterlimit="10"/>
<path d="M501 556.56C531.685 556.56 556.56 531.685 556.56 501C556.56 470.315 531.685 445.44 501 445.44C470.315 445.44 445.44 470.315 445.44 501C445.44 531.685 470.315 556.56 501 556.56Z" stroke="url(#paint17_linear_853_1905)" stroke-miterlimit="10"/>
<defs>
<linearGradient id="paint0_linear_853_1905" x1="501" y1="1" x2="501" y2="1001" gradientUnits="userSpaceOnUse">
<stop stop-color="#164772"/>
<stop offset="1" stop-color="#7CB2E4"/>
</linearGradient>
<linearGradient id="paint1_linear_853_1905" x1="501" y1="27.14" x2="501" y2="974.86" gradientUnits="userSpaceOnUse">
<stop stop-color="#164772"/>
<stop offset="1" stop-color="#7CB2E4"/>
</linearGradient>
<linearGradient id="paint2_linear_853_1905" x1="501" y1="53.29" x2="501" y2="948.71" gradientUnits="userSpaceOnUse">
<stop stop-color="#164772"/>
<stop offset="1" stop-color="#7CB2E4"/>
</linearGradient>
<linearGradient id="paint3_linear_853_1905" x1="501" y1="79.43" x2="501" y2="922.57" gradientUnits="userSpaceOnUse">
<stop stop-color="#164772"/>
<stop offset="1" stop-color="#7CB2E4"/>
</linearGradient>
<linearGradient id="paint4_linear_853_1905" x1="501" y1="105.58" x2="501" y2="896.42" gradientUnits="userSpaceOnUse">
<stop stop-color="#164772"/>
<stop offset="1" stop-color="#7CB2E4"/>
</linearGradient>
<linearGradient id="paint5_linear_853_1905" x1="501" y1="131.72" x2="501" y2="870.28" gradientUnits="userSpaceOnUse">
<stop stop-color="#164772"/>
<stop offset="1" stop-color="#7CB2E4"/>
</linearGradient>
<linearGradient id="paint6_linear_853_1905" x1="501" y1="157.86" x2="501" y2="844.14" gradientUnits="userSpaceOnUse">
<stop stop-color="#164772"/>
<stop offset="1" stop-color="#7CB2E4"/>
</linearGradient>
<linearGradient id="paint7_linear_853_1905" x1="501" y1="184.01" x2="501" y2="817.99" gradientUnits="userSpaceOnUse">
<stop stop-color="#164772"/>
<stop offset="1" stop-color="#7CB2E4"/>
</linearGradient>
<linearGradient id="paint8_linear_853_1905" x1="501" y1="210.15" x2="501" y2="791.85" gradientUnits="userSpaceOnUse">
<stop stop-color="#164772"/>
<stop offset="1" stop-color="#7CB2E4"/>
</linearGradient>
<linearGradient id="paint9_linear_853_1905" x1="501" y1="236.29" x2="501" y2="765.71" gradientUnits="userSpaceOnUse">
<stop stop-color="#164772"/>
<stop offset="1" stop-color="#7CB2E4"/>
</linearGradient>
<linearGradient id="paint10_linear_853_1905" x1="501" y1="262.44" x2="501" y2="739.56" gradientUnits="userSpaceOnUse">
<stop stop-color="#164772"/>
<stop offset="1" stop-color="#7CB2E4"/>
</linearGradient>
<linearGradient id="paint11_linear_853_1905" x1="501" y1="288.58" x2="501" y2="713.42" gradientUnits="userSpaceOnUse">
<stop stop-color="#164772"/>
<stop offset="1" stop-color="#7CB2E4"/>
</linearGradient>
<linearGradient id="paint12_linear_853_1905" x1="501" y1="314.73" x2="501" y2="687.27" gradientUnits="userSpaceOnUse">
<stop stop-color="#164772"/>
<stop offset="1" stop-color="#7CB2E4"/>
</linearGradient>
<linearGradient id="paint13_linear_853_1905" x1="501" y1="340.87" x2="501" y2="661.13" gradientUnits="userSpaceOnUse">
<stop stop-color="#164772"/>
<stop offset="1" stop-color="#7CB2E4"/>
</linearGradient>
<linearGradient id="paint14_linear_853_1905" x1="501" y1="367.01" x2="501" y2="634.99" gradientUnits="userSpaceOnUse">
<stop stop-color="#164772"/>
<stop offset="1" stop-color="#7CB2E4"/>
</linearGradient>
<linearGradient id="paint15_linear_853_1905" x1="501" y1="393.16" x2="501" y2="608.84" gradientUnits="userSpaceOnUse">
<stop stop-color="#164772"/>
<stop offset="1" stop-color="#7CB2E4"/>
</linearGradient>
<linearGradient id="paint16_linear_853_1905" x1="501" y1="419.3" x2="501" y2="582.7" gradientUnits="userSpaceOnUse">
<stop stop-color="#164772"/>
<stop offset="1" stop-color="#7CB2E4"/>
</linearGradient>
<linearGradient id="paint17_linear_853_1905" x1="501" y1="445.44" x2="501" y2="556.56" gradientUnits="userSpaceOnUse">
<stop stop-color="#164772"/>
<stop offset="1" stop-color="#7CB2E4"/>
</linearGradient>
</defs>
</svg>
